<?xml version="1.0" encoding="utf-8"?>
<!-- Generator: Adobe Illustrator 23.1.1, SVG Export Plug-In . SVG Version: 6.00 Build 0)  -->
<svg version="1.1" id="Layer_1" xmlns="http://www.w3.org/2000/svg" xmlns:xlink="http://www.w3.org/1999/xlink" x="0px" y="0px"
	 viewBox="0 0 138.6 47.5" style="enable-background:new 0 0 138.6 47.5;" xml:space="preserve">
<style type="text/css">
	.st0{fill:#F16434;}
	.st1{fill:#F99B1C;}
	.st2{fill:#FFC40C;}
	.st3{fill:#FFFFFF;}
</style>
<g>
	<g>
		<path class="st0" d="M48,20.8c0-0.5,0-1.1-0.2-1.6c-0.5-1.8-2.3-1.9-3.1-1.9c-0.4,0-2.2,0-2.7,1.9c-0.1,0.5-0.1,0.9-0.3,1.4
			c-0.4,0.9-1.3,0.9-1.6,0.9s-1.8,0-1.8-1.5c0-0.9,1.4-3.9,6.7-3.9c4.3,0,6.4,2,6.4,4.4v9.9c0,0.6,0.1,1.6,1.2,1.6
			c1.3,0,1.6-1.4,1.8-2.1h1.2c-0.4,1.3-1.1,4-4.1,4c-1.3,0-1.9-0.4-2.3-0.7c-0.8-0.7-0.9-1.5-1.1-2.2c-0.9,0.9-3,2.9-5.8,2.9
			c-2.4,0-4.4-1.4-4.4-4.4c0-3.4,2-4.7,5.1-5.4c1-0.3,2.1-0.4,3.1-0.7c0.6-0.2,1.3-0.4,1.8-0.6L48,20.8L48,20.8z M48.1,24
			c-0.8,0.3-1.6,0.6-2.4,0.8c-0.9,0.3-1.8,0.5-2.6,1c-1.5,0.9-1.6,2.2-1.6,2.9c0,2,1.4,2.8,2.8,2.8c1.7,0,2.9-0.9,3.8-1.6V24z"/>
		<path class="st0" d="M56.2,17.7c2.8-0.4,3.4-0.6,5.6-1.6c0.4,1.3,0.5,1.6,0.7,3.2c1.1-1.3,2.7-3,5-3c2.1,0,2.4,1.6,2.4,2.2
			c0,0.9-0.5,1.7-1.5,1.7c-0.3,0-0.6-0.1-0.9-0.3c-0.2-0.2-0.3-0.4-0.5-0.7c-0.2-0.3-0.6-0.7-1.3-0.7c-1.4,0-2.4,1.2-3.1,2.1v10.1
			c0,1.5,0.5,1.6,3.2,1.8v1.1h-9.4v-1.1c2.2-0.1,2.7-0.4,2.7-1.6v-10c0-2-0.7-2-3-2.1v-1.1H56.2z"/>
		<path class="st0" d="M70.9,6.2c3-0.3,3.6-0.5,5.9-1.3v13.5c1.1-1.1,2.5-2.4,5.8-2.4c5.6,0,8.2,4.4,8.2,8.9c0,2-0.4,4.7-2.7,7
			c-2.2,2.1-4.5,2.3-5.9,2.3c-2.9,0-4.5-1-6.1-2c-0.7,0.7-0.9,0.9-1.3,1.7h-1.4V9.4c0-1.5-0.5-1.9-2.5-2V6.2z M76.9,29.4
			c0.5,0.8,1.9,3.2,5,3.2c0.7,0,1.4-0.2,2.1-0.5c2.5-1.2,3.1-4.2,3.1-7.1c0-1.5-0.1-4-1.7-5.7c-0.9-1-2-1.4-3.4-1.4
			c-2,0-3.5,0.9-4.2,1.7c-0.4,0.4-0.6,0.8-0.9,1.3V29.4z"/>
		<path class="st0" d="M112.4,25c0,1.1-0.1,4.2-2.5,6.8c-2,2-4.3,2.5-6.5,2.5c-6,0-8.9-4-8.9-9c0-4.3,2.1-7,4.5-8.2
			c1.4-0.7,3.2-1,4.5-1C107.9,16.1,112.4,18.5,112.4,25z M98.3,25.3c0,1.4,0,7.6,5.2,7.6c4.3,0,5.2-4.3,5.2-7.8
			c0-4.8-1.3-6.5-2.9-7.4c-0.7-0.4-1.4-0.5-2.2-0.5C99.1,17.3,98.3,21.6,98.3,25.3z"/>
		<path class="st0" d="M115.2,17.7c2.8-0.4,3.4-0.6,5.6-1.6c0.4,1.3,0.5,1.6,0.7,3.2c1.1-1.3,2.7-3,5-3c2.1,0,2.4,1.6,2.4,2.2
			c0,0.9-0.5,1.7-1.5,1.7c-0.3,0-0.6-0.1-0.9-0.3c-0.2-0.2-0.3-0.4-0.5-0.7c-0.2-0.3-0.6-0.7-1.3-0.7c-1.4,0-2.4,1.2-3.1,2.1v10.1
			c0,1.5,0.5,1.6,3.2,1.8v1.1h-9.4v-1.1c2.2-0.1,2.7-0.4,2.7-1.6v-10c0-2-0.7-2-3-2.1v-1.1H115.2z"/>
	</g>
</g>
<g>
	<path class="st1" d="M19,27.1c0.1-1.1,0.1-2.3,0.7-3.2c-0.1,0-0.4,0-0.5,0c-0.7,1-0.4,2.3-0.6,3.5c-0.2,1.3-0.6,2.4-0.7,3.6l-0.2,0
		l0.1,1.8c0,1.5,0,3-0.1,4.4c-0.1,0.6,0,0.8-0.1,1.4c0,0.3-0.1,0.9,0,1.2c0,0.1-0.1,0.1,0.3,0.2c0.3,0,0.3,0,0.4,0
		c0.1-0.7,0-1.2,0-1.9c0-0.1,0-0.4,0-0.5l0.1-2.5l0-3.1c0-0.2,0-0.3,0.1-0.5C18.5,30,18.8,28.6,19,27.1z"/>
	<path class="st1" d="M11.6,32.8c-0.8-0.1-1.6,0.5-2.4,0.7c-0.8,0.2-1.8,0.4-2.2,1.2c0-0.6,0.6-1,0.5-1.6c0-0.6-0.6-0.8-1.1-0.9
		C5.6,32,3.4,30.3,2.6,31c0.9-0.8,2-1.5,1-2.8c0.7,0,1.9-0.2,2.6-0.7c0.1-0.1,0.2-0.3,0.4-0.4C6.7,27,7,27.1,7.1,27
		c0.3-0.2,0.4-0.6,0.3-0.9c-0.2-0.8-1.5-1.4-2.1-1.9c-1.1-1-1.8-1.6-3.3-1.8C2.8,21.9,4,21.9,4.4,21c0.5-1.1-0.7-2.8-1.4-3.5
		c0,0,0.6,0,0.6,0c0.2-0.1,0.2-0.2,0.3-0.4c0.1-0.4,0-0.8-0.2-1.2c-0.4-0.8-1.4-1.7-1.3-2.6c-0.2,1.1,2.5,1.2,3.1,1.4
		c0.7,0.3,1.9,0.8,2-0.4c0.3,0.4,0.5,0.8,1,1.1c0.5,0.3,1.1,0.5,1.6,0.9c0.7,0.7,1.6,1.8,2.7,1.6c1.6-0.4,0.4-2.6,0.3-3.7
		c-0.1-0.5-0.1-1.1-0.3-1.6c-0.2-0.4-0.6-0.7-0.7-1.3c1.3,0.2,2.1,1.6,3.5,0.8c1-0.5,0.5-2.1,0.5-3c1,0.9,1.5-0.4,1.9-1.1
		c0.5-1,0.3-1.4,0.1-2.5c0.7,0.2,1.2,1.5,1.4,2.2c0.2,0.6,0.2,1.1,0.6,1.6c0.2-0.2,0.4-0.4,0.6-0.5c0.3,1,0.2,2.4,1.4,2.9
		c0.8,0.3,1.6-0.1,2.2-0.6c-0.7,0.9-1,2.2-1,3.3c0,0.7,0.1,1.5,0.4,2.1c0.4,0.8,0.9,0.8,1.7,0.6c1.5-0.4,3.3-1.3,3.8-2.8
		c0.6,0.8,1.4,1.4,2.5,1.2c0.6-0.1,1.5-0.3,1.9-0.7c-0.7,0.9-2.1,2.5-0.5,3.1c-0.8,0.3-1.5,1.1-1.7,2c-0.2,1.3,1.2,1.8,2.3,1.9
		c-0.3,0.3-0.8,0.2-1.1,0.3c-0.8,0.2-1.3,0.8-1.6,1.5c0.1,0,0.2,0,0.2,0c-0.9,0.5-2.2,0.8-2.6,1.9c-0.3,0.8,0,1.6,0.8,2
		c0.7,0.3,1.3,0,2-0.1c-0.4,0.1-0.1,1,0,1.2c0.3,0.5,0.8,0.8,1.2,1.1c0.6,0.5,1.3,0.9,1.6,1.6c-0.7-0.3-1.3-0.9-2.2-0.9
		c-0.5,0-0.9,0.3-1.4,0.5c-1.2,0.6-1.9,1.4-1.8,2.7c-1.3-1.2-3.7-2.2-5.1-0.5c-0.4,0.5-0.7,1.2-1,1.8c-0.3,0.7-0.2,1.4-0.4,2.1
		c-0.5-0.9-0.3-2.2-1.2-2.9c-0.5-0.4-1-0.7-1.4-1.2c-0.4-0.6-0.7-1.2-1.1-1.8c-0.8-1-1.5,0.9-1.8,1.5c-0.4,0.6-0.9,1.2-1.4,1.8
		c-0.5,0.5-1.2,0.8-1.7,1.3c-0.6,0.5-0.7,1-1,1.6c-0.7-0.6-0.4-1.7-0.2-2.4C12.6,34.2,12.5,33,11.6,32.8z"/>
	<path class="st2" d="M18.2,26.4l-0.1-3l0.1-5.6v-3.6l-0.1-3.5l0.2-4.1l-0.3-1c0,0-0.1,0-0.1,0c0.1,1,0.4,1.5-0.1,2.5
		c-0.4,0.7-0.9,2-1.9,1.1c0,0.8,0.5,2.5-0.5,3c-1.4,0.7-2.2-0.7-3.5-0.8c0,0.6,0.4,0.9,0.7,1.3c0.3,0.5,0.3,1.1,0.3,1.6
		c0.1,1,1.3,3.3-0.3,3.7c-1.2,0.3-2-0.9-2.7-1.6c-0.5-0.5-1.1-0.6-1.6-0.9c-0.4-0.3-0.7-0.7-1-1.1c-0.1,1.2-1.3,0.7-2,0.4
		c-0.6-0.2-3-0.3-3.1-1.3c0,0.9,0.9,1.7,1.3,2.5C3.8,16.2,4,16.5,3.9,17c-0.1,0.3-0.1,0.3-0.3,0.4c0,0-0.6,0-0.6,0
		c0.7,0.8,2,2.4,1.4,3.5c-0.4,0.9-1.6,1-2.4,1.4c1.5,0.2,2.2,0.8,3.3,1.8c0.6,0.5,1.9,1.1,2.1,1.9c0.1,0.3,0,0.7-0.3,0.9
		C7,27.1,6.7,27,6.6,27.1c-0.1,0.1-0.2,0.3-0.4,0.4c-0.7,0.5-1.9,0.7-2.6,0.7c1,1.3-0.1,2-1,2.8c0.8-0.7,3,1,3.9,1.2
		c0.5,0.1,1,0.3,1.1,0.9c0,0.6-0.6,1-0.5,1.6c0.4-0.8,1.4-1,2.2-1.2c0.7-0.2,1.6-0.8,2.4-0.7c0.9,0.2,1.1,1.4,0.8,2.1
		c-0.2,0.7-0.5,1.8,0.2,2.4c0.3-0.6,0.4-1.1,1-1.6c0.5-0.5,1.2-0.8,1.7-1.3c0.6-0.5,1-1.1,1.4-1.8c0.3-0.5,0.8-2,1.5-1.7V26.4z"/>
	<path class="st3" d="M18.3,31c0,0,0-0.3,0-0.3l0-0.1l0-0.1l0,0l0,0c0-1.6,0-3,0-3.9c4.2,2,8.9,3.7,8.9,3.7c0,0-0.1,0-0.3-0.1
		c-0.2-0.1-0.4-0.2-0.8-0.3c-0.6-0.3-1.5-0.7-2.5-1.1c0.1-0.1,0.3-0.2,0.6-0.4c0.4-0.3,0.9-0.6,1.3-0.8c0.4-0.2,0.7-0.5,0.3-0.3
		c-0.4,0.1-0.8,0.3-1.2,0.6c-0.5,0.3-1.1,0.7-1.3,0.8c-1.5-0.7-3.2-1.5-4.9-2.2l0,0c1.9-0.9,3.7-1.8,4.9-2.6l0,0.1l0.1-0.1
		c0.4,0.1,1.4,0.4,2.8,0.4c1.9,0.1,2.7-0.2,2.7-0.2l0,0c-0.1,0-0.8,0.2-2.9,0c-1.6-0.1-2.2-0.3-2.5-0.4c0.2-0.1,0.4-0.3,0.5-0.4
		c3.1-2.5,5.7-5.4,5.7-5.4s-0.1,0.1-0.2,0.2c-0.8,0.8-4.3,4.1-6.1,5.4l0,0c-0.1-0.2-0.1-0.8,0.1-2.2c0.1-1,0.3-1.6,0.4-2
		c0-0.2,0.1-0.3,0.1-0.4c0,0,0-0.1,0-0.1l0,0c0,0-0.4,0.7-0.7,2.4c-0.2,1.3-0.1,2.2-0.1,2.5c0,0-0.1,0.1-0.1,0.1
		c-0.4,0.2-1,0.6-1.9,1c-0.9,0.4-1.9,0.9-3,1.5c-0.1-0.8-0.2-2.7-0.2-5.1c0.2-0.2,0.8-0.6,1.6-1.6c0.5-0.6,0.9-1.1,1.3-1.4
		c0.2-0.1,0.4-0.5,0.4-0.5c0,0-0.7,0.3-1.9,1.8c-0.8,0.9-1.2,1.3-1.4,1.4c0-0.7,0-1.4,0-2.1c0-0.4,0-0.8,0-1.2
		c0.2-0.1,0.6-0.3,1.2-0.9c0.9-0.8,1.8-2.5,1.8-2.5l-0.1-0.1c0,0,0,0,0,0.1c-0.2,0.3-1,1.5-1.9,2.4c-0.6,0.6-0.9,0.7-1.1,0.8
		c0-3.7-0.1-7.4-0.1-7.6l0,0l0,0c0,0-0.1,0.1-0.1,0.2c0,0.9,0.1,4.7-0.1,7.4c-0.1,0-0.2-0.1-0.4-0.2c-0.3-0.2-0.6-0.5-1.2-1
		c-0.7-0.7-1.1-1.4-1.4-2.1c0,0,0.6,1.5,1.2,2.1c0.9,1,1.5,1.3,1.7,1.4c0,0.4-0.1,0.8-0.1,1.2c-0.1,0.6-0.1,1.4-0.1,2.1
		c-0.3-0.1-0.8-0.5-1.8-1.5c-0.8-0.8-1.3-1.4-1.5-1.9c0,0,0.5,1.3,1.3,2.1c1,1,1.6,1.4,2,1.6c0,1.8,0.2,3.8,0.3,4.8
		c0,0.1,0,0.2,0,0.3c-3.3-1.8-3.5-2.2-4.9-3.3c-0.1-0.1-0.2-0.2-0.3-0.2c0-0.2,0.1-0.7,0.1-1.4c0-1-0.4-2.5-0.4-2.5c0,0,0,0.1,0,0.3
		c0.1,0.5,0.2,1.7,0.2,2.4c0,0.6-0.1,0.9-0.1,1.1C10.6,20.9,7,18.2,7,18.2l0,0l0,0l-0.1,0.1c0,0,0.1,0,0.2,0.1
		c0.7,0.6,3.7,2.8,5.3,4.1c-0.1,0-0.2,0.1-0.4,0.1c-0.4,0.1-1.1,0.2-2.5,0.3c-1.3,0-2.2,0-2.7,0c-0.3,0-0.4,0-0.6-0.1
		c-0.1,0-0.1,0-0.1,0l0,0l0,0c0,0,1,0.4,3.2,0.3c1.7,0,2.8-0.3,3.2-0.4c0,0,0.1,0,0.1,0c0.1,0.1,0.2,0.2,0.3,0.3
		c1.2,1,2.4,2,4.9,3.3c-1.7,0.8-3.5,1.6-5,2.3c-0.2-0.1-0.8-0.5-1.3-0.8c-0.3-0.2-0.8-0.4-1.2-0.6c-0.4-0.1-0.1,0.1,0.3,0.3
		c0.4,0.2,0.9,0.4,1.3,0.8c0.3,0.2,0.5,0.4,0.6,0.4c-1,0.4-1.9,0.8-2.5,1.1c-0.3,0.1-0.6,0.3-0.8,0.3C9.1,30.2,9,30.3,9,30.3
		c0,0,4.7-1.7,8.9-3.7c-0.1,1.1-0.1,3.5-0.1,4.1c0,0.1,0,0.2,0,0.2c0,0,0,0,0,0l0.1,0C17.9,31,18.2,30.9,18.3,31z M18.3,26.5
		C18.3,26.5,18.3,26.5,18.3,26.5L18.3,26.5C18.3,26.5,18.3,26.5,18.3,26.5z"/>
</g>
<g>
	<path class="st1" d="M39.3,39.8c0.5-0.1,0.6-0.1,0.9-0.3c0.1,0.2,0.1,0.3,0.1,0.5c0.2-0.2,0.4-0.5,0.8-0.5c0.3,0,0.4,0.3,0.4,0.3
		c0,0.1-0.1,0.3-0.2,0.3c-0.1,0-0.1,0-0.1,0c0,0-0.1-0.1-0.1-0.1C41,40,41,40,40.9,40c-0.2,0-0.4,0.2-0.5,0.3v1.6
		c0,0.2,0.1,0.3,0.5,0.3v0.2h-1.5v-0.2c0.3,0,0.4-0.1,0.4-0.3v-1.6c0-0.3-0.1-0.3-0.5-0.3V39.8z"/>
	<path class="st1" d="M44.4,41.8c-0.2,0.3-0.4,0.7-1.1,0.7c-0.2,0-0.6,0-1-0.4c-0.4-0.3-0.4-0.8-0.4-1.1c0-0.9,0.6-1.5,1.3-1.5
		c0.3,0,0.6,0.1,0.8,0.3c0.3,0.3,0.3,0.7,0.4,1h-1.9c0,0.3,0,0.6,0.1,0.8c0.1,0.3,0.4,0.5,0.7,0.5c0.4,0,0.7-0.3,0.9-0.5L44.4,41.8z
		 M43.9,40.7c0-0.2,0-0.4-0.1-0.6c-0.1-0.2-0.3-0.3-0.5-0.3c-0.6,0-0.7,0.6-0.7,0.9H43.9z"/>
	<path class="st1" d="M44.9,38c0.5,0,0.6-0.1,1-0.2v2.2c0.2-0.2,0.5-0.4,1-0.4c0.4,0,0.6,0.2,0.7,0.3c0.1,0.2,0.1,0.4,0.1,0.7V42
		c0,0.2,0.1,0.3,0.4,0.3v0.2h-1.4v-0.2c0.1,0,0.2,0,0.3,0c0.2,0,0.2-0.2,0.2-0.2v-1.3c0-0.2,0-0.4-0.1-0.5c-0.1-0.1-0.2-0.3-0.5-0.3
		c-0.1,0-0.3,0-0.4,0.1c-0.2,0.1-0.3,0.2-0.3,0.2v1.7c0,0.3,0.1,0.3,0.4,0.3v0.2h-1.4v-0.2c0.3,0,0.4,0,0.4-0.3v-3.4
		c0-0.3-0.1-0.3-0.5-0.3V38z"/>
	<path class="st1" d="M50.3,40.3c0-0.1,0-0.2,0-0.3c-0.1-0.3-0.4-0.3-0.5-0.3c-0.1,0-0.4,0-0.4,0.3c0,0.1,0,0.2-0.1,0.2
		c-0.1,0.1-0.2,0.1-0.3,0.1c0,0-0.3,0-0.3-0.2c0-0.2,0.2-0.6,1.1-0.6c0.7,0,1,0.3,1,0.7v1.6c0,0.1,0,0.3,0.2,0.3
		c0.2,0,0.3-0.2,0.3-0.3h0.2c-0.1,0.2-0.2,0.7-0.7,0.7c-0.2,0-0.3-0.1-0.4-0.1c-0.1-0.1-0.2-0.2-0.2-0.4c-0.1,0.1-0.5,0.5-0.9,0.5
		c-0.4,0-0.7-0.2-0.7-0.7c0-0.5,0.3-0.8,0.8-0.9c0.2,0,0.3-0.1,0.5-0.1c0.1,0,0.2-0.1,0.3-0.1V40.3z M50.3,40.8
		c-0.1,0-0.3,0.1-0.4,0.1c-0.1,0-0.3,0.1-0.4,0.2c-0.2,0.2-0.3,0.4-0.3,0.5c0,0.3,0.2,0.5,0.5,0.5c0.3,0,0.5-0.2,0.6-0.3V40.8z"/>
	<path class="st1" d="M51.6,38c0.5,0,0.6-0.1,1-0.2v2.2c0.2-0.2,0.4-0.4,0.9-0.4c0.9,0,1.3,0.7,1.3,1.4c0,0.3-0.1,0.8-0.4,1.1
		c-0.3,0.3-0.7,0.4-1,0.4c-0.5,0-0.7-0.2-1-0.3c-0.1,0.1-0.1,0.1-0.2,0.3H52v-4c0-0.2-0.1-0.3-0.4-0.3V38z M52.6,41.7
		c0.1,0.1,0.3,0.5,0.8,0.5c0.1,0,0.2,0,0.3-0.1c0.4-0.2,0.5-0.7,0.5-1.1c0-0.2,0-0.6-0.3-0.9c-0.2-0.2-0.3-0.2-0.6-0.2
		c-0.3,0-0.6,0.1-0.7,0.3c-0.1,0.1-0.1,0.1-0.1,0.2V41.7z"/>
	<path class="st1" d="M55.3,39.8c0.5,0,0.6-0.1,1-0.2v2.3c0,0.3,0.1,0.3,0.4,0.3v0.2h-1.4v-0.2c0.4,0,0.4-0.1,0.4-0.3v-1.6
		c0-0.3-0.1-0.3-0.5-0.3V39.8z M55.7,38.6c0-0.2,0.2-0.3,0.3-0.3c0.2,0,0.3,0.2,0.3,0.3c0,0.2-0.2,0.3-0.3,0.3
		C55.9,38.9,55.7,38.8,55.7,38.6z"/>
	<path class="st1" d="M57.1,38c0.5,0,0.6,0,1-0.2v4.2c0,0.2,0.1,0.3,0.4,0.3v0.2h-1.4v-0.2c0.4,0,0.4-0.1,0.4-0.3v-3.5
		c0-0.3-0.2-0.3-0.5-0.3V38z"/>
	<path class="st1" d="M58.9,39.8c0.5,0,0.6-0.1,1-0.2v2.3c0,0.3,0.1,0.3,0.4,0.3v0.2h-1.4v-0.2c0.4,0,0.4-0.1,0.4-0.3v-1.6
		c0-0.3-0.1-0.3-0.5-0.3V39.8z M59.3,38.6c0-0.2,0.2-0.3,0.3-0.3c0.2,0,0.3,0.2,0.3,0.3c0,0.2-0.2,0.3-0.3,0.3
		C59.5,38.9,59.3,38.8,59.3,38.6z"/>
	<path class="st1" d="M60.7,39.7c0.2-0.1,0.4-0.1,0.6-0.6c0.1-0.2,0.1-0.3,0.1-0.5h0.2v1h0.7v0.2h-0.7v1.8c0,0.1,0,0.2,0,0.2
		c0,0.2,0.2,0.3,0.3,0.3c0.2,0,0.4-0.2,0.5-0.3l0.1,0.1c-0.2,0.2-0.4,0.5-0.8,0.5c-0.2,0-0.3,0-0.4-0.2c-0.2-0.2-0.2-0.5-0.2-0.7
		l0-1.8h-0.4V39.7z"/>
	<path class="st1" d="M64.4,40.3c0-0.1,0-0.2,0-0.3c-0.1-0.3-0.4-0.3-0.5-0.3c-0.1,0-0.4,0-0.4,0.3c0,0.1,0,0.2-0.1,0.2
		c-0.1,0.1-0.2,0.1-0.3,0.1c0,0-0.3,0-0.3-0.2c0-0.2,0.2-0.6,1.1-0.6c0.7,0,1,0.3,1,0.7v1.6c0,0.1,0,0.3,0.2,0.3
		c0.2,0,0.3-0.2,0.3-0.3h0.2c-0.1,0.2-0.2,0.7-0.7,0.7c-0.2,0-0.3-0.1-0.4-0.1c-0.1-0.1-0.2-0.2-0.2-0.4c-0.1,0.1-0.5,0.5-0.9,0.5
		c-0.4,0-0.7-0.2-0.7-0.7c0-0.5,0.3-0.8,0.8-0.9c0.2,0,0.3-0.1,0.5-0.1c0.1,0,0.2-0.1,0.3-0.1V40.3z M64.4,40.8
		c-0.1,0-0.3,0.1-0.4,0.1c-0.1,0-0.3,0.1-0.4,0.2c-0.2,0.2-0.3,0.4-0.3,0.5c0,0.3,0.2,0.5,0.5,0.5c0.3,0,0.5-0.2,0.6-0.3V40.8z"/>
	<path class="st1" d="M65.8,39.7c0.2-0.1,0.4-0.1,0.6-0.6c0.1-0.2,0.1-0.3,0.1-0.5h0.2v1h0.7v0.2h-0.7v1.8c0,0.1,0,0.2,0,0.2
		c0,0.2,0.2,0.3,0.3,0.3c0.2,0,0.4-0.2,0.5-0.3l0.1,0.1c-0.2,0.2-0.4,0.5-0.8,0.5c-0.2,0-0.3,0-0.4-0.2c-0.2-0.2-0.2-0.5-0.2-0.7
		l0-1.8h-0.4V39.7z"/>
	<path class="st1" d="M67.7,39.8c0.5,0,0.6-0.1,1-0.2v2.3c0,0.3,0.1,0.3,0.4,0.3v0.2h-1.4v-0.2c0.4,0,0.4-0.1,0.4-0.3v-1.6
		c0-0.3-0.1-0.3-0.5-0.3V39.8z M68.1,38.6c0-0.2,0.2-0.3,0.3-0.3c0.2,0,0.3,0.2,0.3,0.3c0,0.2-0.2,0.3-0.3,0.3
		C68.3,38.9,68.1,38.8,68.1,38.6z"/>
	<path class="st1" d="M72.6,41c0,0.2,0,0.7-0.4,1.1c-0.3,0.3-0.7,0.4-1,0.4c-1,0-1.4-0.6-1.4-1.5c0-0.7,0.3-1.1,0.7-1.3
		c0.2-0.1,0.5-0.2,0.7-0.2C71.8,39.5,72.6,39.9,72.6,41z M70.3,41c0,0.2,0,1.2,0.8,1.2c0.7,0,0.8-0.7,0.8-1.3c0-0.8-0.2-1-0.5-1.2
		c-0.1-0.1-0.2-0.1-0.4-0.1C70.4,39.8,70.3,40.5,70.3,41z"/>
	<path class="st1" d="M73,39.8c0.5-0.1,0.6-0.1,0.9-0.2C74,39.7,74,39.8,74,40c0.2-0.2,0.6-0.4,1.1-0.4c0.2,0,0.4,0,0.6,0.2
		c0.2,0.2,0.2,0.4,0.2,0.6V42c0,0.2,0.1,0.3,0.4,0.3v0.2h-1.4v-0.2c0.3,0,0.4,0,0.4-0.3v-1.4c0-0.1,0-0.3-0.1-0.4
		c-0.1-0.1-0.2-0.2-0.5-0.2c-0.4,0-0.6,0.2-0.7,0.3v1.7c0,0.2,0.1,0.3,0.5,0.3v0.2h-1.4v-0.2c0.4,0,0.4-0.1,0.4-0.3v-1.7
		c0-0.3-0.2-0.3-0.5-0.3V39.8z"/>
	<path class="st1" d="M82.9,42c-0.2,0.2-0.4,0.5-0.9,0.5c-0.1,0-0.2,0-0.4-0.1c-0.3-0.1-0.4-0.3-0.7-0.5c-0.3,0.3-0.6,0.6-1.1,0.6
		c-0.5,0-0.8-0.3-0.9-0.4c-0.2-0.2-0.3-0.4-0.3-0.8c0-0.8,0.7-1.2,1-1.4c-0.2-0.3-0.4-0.5-0.4-0.9c0-0.6,0.5-0.8,0.9-0.8
		c0.5,0,0.9,0.3,0.9,0.7c0,0.1-0.1,0.3-0.1,0.4c-0.2,0.3-0.5,0.4-0.8,0.5c0.4,0.6,0.6,0.8,1,1.4c0.1-0.2,0.4-0.6,0.4-0.9
		c0-0.3-0.2-0.4-0.5-0.4v-0.2h1.4V40c-0.3,0.1-0.5,0.2-0.7,0.6l-0.2,0.3c-0.1,0.3-0.2,0.4-0.3,0.6c0.2,0.3,0.3,0.4,0.4,0.4
		c0.2,0.2,0.4,0.3,0.5,0.3c0.3,0,0.4-0.2,0.5-0.3L82.9,42z M79.3,40.6c-0.1,0.1-0.1,0.3-0.1,0.5c0,0.4,0.4,1,1,1
		c0.4,0,0.6-0.2,0.7-0.3c-0.4-0.6-0.6-0.8-1.1-1.6C79.6,40.2,79.4,40.3,79.3,40.6z M80.7,38.9c0-0.3-0.2-0.5-0.5-0.5
		c-0.2,0-0.5,0.1-0.5,0.4c0,0.2,0.2,0.5,0.4,0.8C80.3,39.6,80.7,39.3,80.7,38.9z"/>
	<path class="st1" d="M85,38c0.5,0,0.6-0.1,1-0.2v2.2c0.2-0.2,0.5-0.4,1-0.4c0.4,0,0.6,0.2,0.7,0.3c0.1,0.2,0.1,0.4,0.1,0.7V42
		c0,0.2,0.1,0.3,0.4,0.3v0.2h-1.4v-0.2c0.1,0,0.2,0,0.3,0c0.2,0,0.2-0.2,0.2-0.2v-1.3c0-0.2,0-0.4-0.1-0.5c-0.1-0.1-0.2-0.3-0.5-0.3
		c-0.1,0-0.3,0-0.4,0.1c-0.2,0.1-0.3,0.2-0.3,0.2v1.7c0,0.3,0.1,0.3,0.4,0.3v0.2H85v-0.2c0.3,0,0.4,0,0.4-0.3v-3.4
		c0-0.3-0.1-0.3-0.5-0.3V38z"/>
	<path class="st1" d="M91.3,41.8c-0.2,0.3-0.4,0.7-1.1,0.7c-0.2,0-0.6,0-1-0.4c-0.4-0.3-0.4-0.8-0.4-1.1c0-0.9,0.6-1.5,1.3-1.5
		c0.3,0,0.6,0.1,0.8,0.3c0.3,0.3,0.3,0.7,0.4,1h-1.9c0,0.3,0,0.6,0.1,0.8c0.1,0.3,0.4,0.5,0.7,0.5c0.4,0,0.7-0.3,0.9-0.5L91.3,41.8z
		 M90.7,40.7c0-0.2,0-0.4-0.1-0.6c-0.1-0.2-0.3-0.3-0.5-0.3c-0.6,0-0.7,0.6-0.7,0.9H90.7z"/>
	<path class="st1" d="M93.5,40.3c0-0.1,0-0.2,0-0.3c-0.1-0.3-0.4-0.3-0.5-0.3c-0.1,0-0.4,0-0.4,0.3c0,0.1,0,0.2-0.1,0.2
		c-0.1,0.1-0.2,0.1-0.3,0.1c0,0-0.3,0-0.3-0.2c0-0.2,0.2-0.6,1.1-0.6c0.7,0,1,0.3,1,0.7v1.6c0,0.1,0,0.3,0.2,0.3
		c0.2,0,0.3-0.2,0.3-0.3h0.2c-0.1,0.2-0.2,0.7-0.7,0.7c-0.2,0-0.3-0.1-0.4-0.1c-0.1-0.1-0.2-0.2-0.2-0.4c-0.1,0.1-0.5,0.5-0.9,0.5
		c-0.4,0-0.7-0.2-0.7-0.7c0-0.5,0.3-0.8,0.8-0.9c0.2,0,0.3-0.1,0.5-0.1c0.1,0,0.2-0.1,0.3-0.1V40.3z M93.5,40.8
		c-0.1,0-0.3,0.1-0.4,0.1c-0.1,0-0.3,0.1-0.4,0.2c-0.2,0.2-0.3,0.4-0.3,0.5c0,0.3,0.2,0.5,0.5,0.5c0.3,0,0.5-0.2,0.6-0.3V40.8z"/>
	<path class="st1" d="M94.8,38c0.5,0,0.6,0,1-0.2v4.2c0,0.2,0.1,0.3,0.4,0.3v0.2h-1.4v-0.2c0.4,0,0.4-0.1,0.4-0.3v-3.5
		c0-0.3-0.2-0.3-0.5-0.3V38z"/>
	<path class="st1" d="M96.7,39.7c0.2-0.1,0.4-0.1,0.6-0.6c0.1-0.2,0.1-0.3,0.1-0.5h0.2v1h0.7v0.2h-0.7v1.8c0,0.1,0,0.2,0,0.2
		c0,0.2,0.2,0.3,0.3,0.3c0.2,0,0.4-0.2,0.5-0.3l0.1,0.1c-0.2,0.2-0.4,0.5-0.8,0.5c-0.2,0-0.3,0-0.4-0.2C97,42.1,97,41.8,97,41.6
		l0-1.8h-0.4V39.7z"/>
	<path class="st1" d="M98.6,38c0.5,0,0.6-0.1,1-0.2v2.2c0.2-0.2,0.5-0.4,1-0.4c0.4,0,0.6,0.2,0.7,0.3c0.1,0.2,0.1,0.4,0.1,0.7V42
		c0,0.2,0.1,0.3,0.4,0.3v0.2h-1.4v-0.2c0.1,0,0.2,0,0.3,0c0.2,0,0.2-0.2,0.2-0.2v-1.3c0-0.2,0-0.4-0.1-0.5c-0.1-0.1-0.2-0.3-0.5-0.3
		c-0.1,0-0.3,0-0.4,0.1c-0.2,0.1-0.3,0.2-0.3,0.2v1.7c0,0.3,0.1,0.3,0.4,0.3v0.2h-1.4v-0.2c0.3,0,0.4,0,0.4-0.3v-3.4
		c0-0.3-0.1-0.3-0.5-0.3V38z"/>
	<path class="st1" d="M104.9,41.8c-0.1,0.2-0.2,0.3-0.3,0.5c-0.2,0.2-0.5,0.3-0.8,0.3c-0.7,0-1.4-0.4-1.4-1.4c0-0.9,0.6-1.5,1.4-1.5
		c0.6,0,0.9,0.3,0.9,0.6c0,0,0,0.2-0.3,0.2c-0.1,0-0.2,0-0.2-0.1c0-0.1,0-0.2,0-0.2c-0.1-0.2-0.3-0.3-0.4-0.3
		c-0.4,0-0.8,0.3-0.8,1.1c0,0.4,0.1,1.3,0.9,1.3c0.5,0,0.7-0.3,0.8-0.5L104.9,41.8z"/>
	<path class="st1" d="M107,40.3c0-0.1,0-0.2,0-0.3c-0.1-0.3-0.4-0.3-0.5-0.3c-0.1,0-0.4,0-0.4,0.3c0,0.1,0,0.2-0.1,0.2
		c-0.1,0.1-0.2,0.1-0.3,0.1c0,0-0.3,0-0.3-0.2c0-0.2,0.2-0.6,1.1-0.6c0.7,0,1,0.3,1,0.7v1.6c0,0.1,0,0.3,0.2,0.3
		c0.2,0,0.3-0.2,0.3-0.3h0.2c-0.1,0.2-0.2,0.7-0.7,0.7c-0.2,0-0.3-0.1-0.4-0.1c-0.1-0.1-0.2-0.2-0.2-0.4c-0.1,0.1-0.5,0.5-0.9,0.5
		c-0.4,0-0.7-0.2-0.7-0.7c0-0.5,0.3-0.8,0.8-0.9c0.2,0,0.3-0.1,0.5-0.1c0.1,0,0.2-0.1,0.3-0.1V40.3z M107,40.8
		c-0.1,0-0.3,0.1-0.4,0.1c-0.1,0-0.3,0.1-0.4,0.2c-0.2,0.2-0.3,0.4-0.3,0.5c0,0.3,0.2,0.5,0.5,0.5c0.3,0,0.5-0.2,0.6-0.3V40.8z"/>
	<path class="st1" d="M108.3,39.8c0.5-0.1,0.6-0.1,0.9-0.3c0.1,0.2,0.1,0.3,0.1,0.5c0.2-0.2,0.4-0.5,0.8-0.5c0.3,0,0.4,0.3,0.4,0.3
		c0,0.1-0.1,0.3-0.2,0.3c-0.1,0-0.1,0-0.1,0c0,0,0-0.1-0.1-0.1c0-0.1-0.1-0.1-0.2-0.1c-0.2,0-0.4,0.2-0.5,0.3v1.6
		c0,0.2,0.1,0.3,0.5,0.3v0.2h-1.5v-0.2c0.3,0,0.4-0.1,0.4-0.3v-1.6c0-0.3-0.1-0.3-0.5-0.3V39.8z"/>
	<path class="st1" d="M113.4,41.8c-0.2,0.3-0.4,0.7-1.1,0.7c-0.2,0-0.6,0-1-0.4c-0.4-0.3-0.4-0.8-0.4-1.1c0-0.9,0.6-1.5,1.3-1.5
		c0.3,0,0.6,0.1,0.8,0.3c0.3,0.3,0.3,0.7,0.4,1h-1.9c0,0.3,0,0.6,0.1,0.8c0.1,0.3,0.4,0.5,0.7,0.5c0.4,0,0.7-0.3,0.9-0.5L113.4,41.8
		z M112.9,40.7c0-0.2,0-0.4-0.1-0.6c-0.1-0.2-0.3-0.3-0.5-0.3c-0.6,0-0.7,0.6-0.7,0.9H112.9z"/>
	<path class="st1" d="M115.7,39.8c0.5,0,0.6-0.1,1-0.2v2.3c0,0.3,0.1,0.3,0.4,0.3v0.2h-1.4v-0.2c0.4,0,0.4-0.1,0.4-0.3v-1.6
		c0-0.3-0.1-0.3-0.5-0.3V39.8z M116.1,38.6c0-0.2,0.2-0.3,0.3-0.3c0.2,0,0.3,0.2,0.3,0.3c0,0.2-0.2,0.3-0.3,0.3
		C116.3,38.9,116.1,38.8,116.1,38.6z"/>
	<path class="st1" d="M117.5,39.8c0.5-0.1,0.6-0.1,0.9-0.2c0.1,0.2,0.1,0.2,0.1,0.4c0.2-0.2,0.6-0.4,1.1-0.4c0.2,0,0.4,0,0.6,0.2
		c0.2,0.2,0.2,0.4,0.2,0.6V42c0,0.2,0.1,0.3,0.4,0.3v0.2h-1.4v-0.2c0.3,0,0.4,0,0.4-0.3v-1.4c0-0.1,0-0.3-0.1-0.4
		c-0.1-0.1-0.2-0.2-0.5-0.2c-0.4,0-0.6,0.2-0.7,0.3v1.7c0,0.2,0.1,0.3,0.5,0.3v0.2h-1.4v-0.2c0.4,0,0.4-0.1,0.4-0.3v-1.7
		c0-0.3-0.2-0.3-0.5-0.3V39.8z"/>
	<path class="st1" d="M123.8,41.8c-0.1,0.2-0.2,0.3-0.3,0.5c-0.2,0.2-0.5,0.3-0.8,0.3c-0.7,0-1.4-0.4-1.4-1.4c0-0.9,0.6-1.5,1.4-1.5
		c0.6,0,0.9,0.3,0.9,0.6c0,0,0,0.2-0.3,0.2c-0.1,0-0.2,0-0.2-0.1c0-0.1,0-0.2,0-0.2c-0.1-0.2-0.3-0.3-0.4-0.3
		c-0.4,0-0.8,0.3-0.8,1.1c0,0.4,0.1,1.3,0.9,1.3c0.5,0,0.7-0.3,0.8-0.5L123.8,41.8z"/>
	<path class="st1" d="M124.5,42.1c0-0.2,0.2-0.4,0.4-0.4s0.4,0.2,0.4,0.4s-0.2,0.4-0.4,0.4S124.5,42.3,124.5,42.1z"/>
</g>
</svg>
